<svg width="385" height="409" viewBox="0 0 385 409" fill="none" xmlns="http://www.w3.org/2000/svg">
<g filter="url(#filter0_d_6_32)">
<circle cx="200.5" cy="180.5" r="180.5" fill="url(#paint0_linear_6_32)"/>
<path d="M338.118 391.791C335.901 394.772 333.152 397.321 330.01 399.309C329.342 399.731 328.656 400.13 327.958 400.499H311.533C311.73 400.106 311.921 399.708 312.106 399.309C317.198 388.587 318.795 376.542 316.672 364.868C314.549 353.194 308.812 342.477 300.269 334.224C310.197 337.283 319.372 343.248 325.374 351.706C328.291 355.826 330.365 360.478 331.478 365.397C332.47 355.559 330.893 345.632 326.902 336.581C334.962 343.123 341.239 352.081 343.631 362.165C346.023 372.254 344.287 383.451 338.118 391.791Z" fill="#D0E6FF"/>
<path d="M344.772 401H191.001V399.746H345L344.772 401Z" fill="#3F3D56"/>
<path d="M188.205 239.712C188.205 262.713 180.151 282.35 164.823 296.964C153.947 307.339 137.194 321.881 137.194 337.257V349.977H86.1831V337.257C86.1831 321.72 69.3644 307.149 58.5537 296.964C43.5726 282.862 35.1722 261.891 35.1722 239.712V239.242C35.238 218.997 43.3609 199.607 57.7543 185.337C72.1478 171.067 91.6329 163.086 111.924 163.148C132.215 163.211 151.651 171.312 165.956 185.67C180.261 200.028 188.264 219.467 188.205 239.712Z" fill="#1876E4"/>
<path d="M137.193 351.763C136.719 351.763 136.263 351.575 135.928 351.24C135.592 350.905 135.404 350.451 135.404 349.977V337.255C135.404 322.299 150.187 308.337 160.982 298.143C161.877 297.296 162.749 296.476 163.585 295.675C178.518 281.432 186.411 262.081 186.411 239.713C186.411 197.909 153.59 165.162 111.69 165.162H111.479C91.76 165.184 72.8523 172.995 58.8896 186.886C44.9268 200.778 37.045 219.62 36.9674 239.294V239.71C36.9674 261.616 45.2837 282.011 59.7851 295.668C60.5195 296.361 61.2826 297.073 62.066 297.805C73.0002 308.019 87.9753 322.006 87.9753 337.255V349.977C87.9753 350.451 87.7868 350.905 87.4511 351.24C87.1154 351.575 86.6602 351.763 86.1855 351.763C85.7108 351.763 85.2555 351.575 84.9199 351.24C84.5842 350.905 84.3956 350.451 84.3956 349.977V337.255C84.3956 323.555 70.0768 310.179 59.6192 300.408C58.8323 299.674 58.0684 298.958 57.3276 298.262C42.1138 283.933 33.3877 262.592 33.3877 239.711V239.282C33.507 196.397 68.5196 161.588 111.473 161.588H111.695C132.353 161.481 152.207 169.566 166.891 184.064C181.574 198.562 189.884 218.286 189.991 238.897C189.993 239.169 189.993 239.441 189.991 239.713C189.991 263.08 181.715 283.324 166.06 298.257C165.219 299.059 164.344 299.886 163.443 300.736C153.121 310.485 138.981 323.836 138.981 337.255V349.977C138.981 350.451 138.793 350.905 138.457 351.24C138.122 351.575 137.666 351.763 137.192 351.763H137.193Z" fill="#3F3D56"/>
<path d="M128.693 374.678H94.6855C93.8943 374.678 93.1356 374.364 92.5761 373.806C92.0167 373.248 91.7024 372.491 91.7024 371.701C91.7024 370.912 92.0167 370.155 92.5761 369.597C93.1356 369.039 93.8943 368.725 94.6855 368.725H128.693C129.484 368.725 130.243 369.039 130.802 369.597C131.362 370.155 131.676 370.912 131.676 371.701C131.676 372.491 131.362 373.248 130.802 373.806C130.243 374.364 129.484 374.678 128.693 374.678V374.678Z" fill="#1876E4"/>
<path d="M115.346 394.618H108.027C105.485 394.62 102.99 393.931 100.811 392.624C100.488 392.436 100.238 392.145 100.101 391.798C99.9637 391.451 99.9474 391.068 100.055 390.711C100.153 390.344 100.37 390.02 100.673 389.789C100.975 389.558 101.346 389.434 101.726 389.436H121.647C122.027 389.434 122.398 389.558 122.7 389.789C123.003 390.02 123.22 390.344 123.318 390.711C123.426 391.068 123.409 391.451 123.272 391.798C123.135 392.145 122.884 392.436 122.561 392.624C120.383 393.931 117.888 394.62 115.346 394.618V394.618Z" fill="#3F3D56"/>
<path d="M128.699 384.079L94.4896 384.075L94.3836 383.848C94.2827 383.432 94.2785 382.997 94.3716 382.579C94.4646 382.16 94.6524 381.768 94.9205 381.433C95.1922 381.089 95.5388 380.811 95.9339 380.621C96.329 380.43 96.7624 380.331 97.2013 380.332H126.172C126.611 380.331 127.044 380.43 127.439 380.621C127.834 380.811 128.181 381.089 128.453 381.433C128.719 381.764 128.906 382.15 129 382.563C129.094 382.977 129.093 383.406 128.996 383.818L128.942 384.048L128.699 384.079Z" fill="#3F3D56"/>
<path d="M32.5775 169.556C31.8564 169.557 31.1596 169.296 30.617 168.823L4.9988 146.512C4.41194 145.99 4.05511 145.259 4.00586 144.476C3.95662 143.693 4.21896 142.923 4.73583 142.332C5.25271 141.741 5.98236 141.378 6.76625 141.321C7.55013 141.264 8.32489 141.518 8.92216 142.028L34.5404 164.339C34.998 164.737 35.3227 165.265 35.4713 165.853C35.6199 166.44 35.5851 167.059 35.3717 167.627C35.1583 168.194 34.7764 168.683 34.2771 169.028C33.7778 169.373 33.1849 169.557 32.5775 169.557V169.556Z" fill="#D0E6FF"/>
<path d="M186.552 169.557C185.944 169.557 185.351 169.372 184.852 169.027C184.353 168.682 183.971 168.193 183.757 167.626C183.544 167.059 183.509 166.44 183.658 165.852C183.806 165.265 184.131 164.736 184.589 164.338L210.206 142.025C210.804 141.516 211.578 141.262 212.362 141.319C213.146 141.376 213.876 141.739 214.393 142.33C214.91 142.921 215.172 143.691 215.123 144.474C215.073 145.256 214.717 145.988 214.13 146.509L188.512 168.82C187.969 169.295 187.273 169.557 186.552 169.557Z" fill="#D0E6FF"/>
<path d="M137.193 364.115H86.1825C85.3913 364.115 84.6326 363.801 84.0731 363.243C83.5137 362.685 83.1994 361.928 83.1994 361.138C83.1994 360.349 83.5137 359.592 84.0731 359.034C84.6326 358.476 85.3913 358.162 86.1825 358.162H137.193C137.985 358.162 138.743 358.476 139.303 359.034C139.862 359.592 140.177 360.349 140.177 361.138C140.177 361.928 139.862 362.685 139.303 363.243C138.743 363.801 137.985 364.115 137.193 364.115V364.115Z" fill="#1876E4"/>
<path d="M110.436 286.362L99.8278 349.977H93.7721L104.547 285.386C104.677 284.607 105.111 283.911 105.755 283.452C106.399 282.993 107.2 282.807 107.981 282.937C108.761 283.066 109.459 283.5 109.919 284.142C110.38 284.785 110.565 285.583 110.436 286.362V286.362Z" fill="#E6E6E6"/>
<path d="M130.822 349.977H124.766L114.159 286.362C114.029 285.583 114.215 284.785 114.675 284.142C115.135 283.5 115.833 283.066 116.614 282.937C117.395 282.807 118.195 282.993 118.839 283.452C119.483 283.911 119.917 284.607 120.047 285.386L130.822 349.977Z" fill="#E6E6E6"/>
<path d="M92.3011 284.237C92.3011 283.448 92.6154 282.691 93.1748 282.133C93.7343 281.575 94.4931 281.261 95.2842 281.261H128.094C128.885 281.261 129.644 281.575 130.203 282.133C130.763 282.691 131.077 283.448 131.077 284.237C131.077 285.027 130.763 285.784 130.203 286.342C129.644 286.9 128.885 287.214 128.094 287.214H95.2842C94.4931 287.214 93.7343 286.9 93.1748 286.342C92.6154 285.784 92.3011 285.027 92.3011 284.237V284.237Z" fill="#E6E6E6"/>
<path d="M111.689 139.847C110.898 139.847 110.139 139.533 109.58 138.975C109.02 138.417 108.706 137.66 108.706 136.871V85.9763C108.706 85.1869 109.02 84.4299 109.58 83.8717C110.139 83.3136 110.898 83 111.689 83C112.48 83 113.239 83.3136 113.799 83.8717C114.358 84.4299 114.672 85.1869 114.672 85.9763V136.871C114.672 137.66 114.358 138.417 113.799 138.975C113.239 139.533 112.48 139.847 111.689 139.847V139.847Z" fill="#D0E6FF"/>
<path d="M304.539 392.672H297.226L293.746 364.524H304.54L304.539 392.672Z" fill="#FEB8B8"/>
<path d="M306.405 399.746H282.82V399.449C282.82 397.02 283.787 394.691 285.508 392.973C287.23 391.256 289.564 390.29 291.999 390.29H306.405L306.405 399.746Z" fill="#2F2E41"/>
<path d="M248.972 392.432L241.905 390.547L245.831 362.457L256.26 365.239L248.972 392.432Z" fill="#FEB8B8"/>
<path d="M248.943 399.746L226.158 393.668L226.235 393.38C226.864 391.034 228.402 389.032 230.51 387.817C232.617 386.601 235.123 386.27 237.475 386.898V386.898L251.391 390.61L248.943 399.746Z" fill="#2F2E41"/>
<path d="M308.747 234.923L314.874 242.025L306.951 386.34H290.025L281.494 275.294L255.034 389.318L237.439 385.012L253.438 240.187L308.747 234.923Z" fill="#1876E4"/>
<path d="M257.528 141.751L274.38 133.315L300.295 133.77L322.597 145.155L309.908 208.382L315.389 241.347C294.205 246.737 272.025 246.919 250.755 241.878L250.585 241.837C250.585 241.837 263.182 197.243 257.82 183.634L257.528 141.751Z" fill="#033065"/>
<path d="M306.281 108.055C306.263 103.01 304.238 98.1785 300.653 94.6212C297.068 91.0639 292.214 89.0712 287.158 89.0806C282.101 89.0899 277.255 91.1005 273.683 94.671C270.111 98.2416 268.105 103.08 268.105 108.125C268.105 113.17 270.111 118.009 273.683 121.579C277.255 125.15 282.101 127.16 287.158 127.17C292.214 127.179 297.068 125.186 300.653 121.629C304.238 118.072 306.263 113.24 306.281 108.196V108.055Z" fill="#FEB8B8"/>
<path d="M255.202 187.848C255.565 188.777 256.128 189.616 256.85 190.305C257.573 190.994 258.438 191.517 259.385 191.836C260.333 192.156 261.338 192.264 262.332 192.154C263.325 192.043 264.283 191.717 265.136 191.197L299.354 209.244L300.462 200.928L267.212 181.366C266.243 179.994 264.802 179.024 263.163 178.64C261.525 178.256 259.802 178.486 258.322 179.285C256.841 180.084 255.706 181.397 255.131 182.975C254.556 184.553 254.581 186.287 255.202 187.848H255.202Z" fill="#FEB8B8"/>
<path d="M300.801 189.285C300.244 190.113 299.511 190.809 298.654 191.324C297.798 191.838 296.839 192.159 295.845 192.264C294.851 192.369 293.846 192.255 292.9 191.931C291.955 191.606 291.092 191.079 290.374 190.385L253.025 200.526L253.35 189.967L290.502 180.34C291.75 179.212 293.368 178.58 295.051 178.563C296.735 178.546 298.365 179.146 299.635 180.249C300.904 181.352 301.724 182.881 301.939 184.547C302.154 186.212 301.749 187.899 300.801 189.287L300.801 189.285Z" fill="#FEB8B8"/>
<path d="M315.315 145.613L322.596 145.157C322.596 145.157 331.122 156.381 326.393 168.56C326.393 168.56 327.212 212.312 308.33 210.514C289.448 208.716 283.481 208.717 283.481 208.717L289.149 192.943L301.829 189.036C301.829 189.036 297.921 171.837 305.318 164.681L315.315 145.613Z" fill="#CCE3FF"/>
<path d="M262.733 145.229L261.704 139.965C261.704 139.965 246.526 139.608 243.525 162.555C243.525 162.555 229.877 196.897 243.254 201.319C256.632 205.741 271.349 201.319 271.349 201.319L270.241 186.173L255.522 183.177C255.522 183.177 263.126 173.362 258.985 164.848L262.733 145.229Z" fill="#CCE3FF"/>
<path d="M293.802 117.406C292.398 116.857 290.843 116.885 289.36 116.614C284.054 115.639 279.962 110.241 280.466 104.882C280.592 104.187 280.604 103.477 280.5 102.779C280.132 101.25 278.429 100.429 276.864 100.246C275.299 100.063 273.682 100.297 272.159 99.8904C269.809 99.2623 268.053 97.1234 267.458 94.7694C266.95 92.3755 267.215 89.883 268.213 87.6482L268.944 89.1673C269.703 88.3631 270.221 87.3622 270.439 86.2787C271.077 86.313 271.695 86.5102 272.235 86.8512C272.775 87.1923 273.218 87.6659 273.521 88.2267C274.465 88.647 274.349 86.4968 275.29 86.0713C275.713 85.9694 276.159 86.0274 276.543 86.234C278.615 86.9276 280.812 85.887 282.865 85.1413C286.422 83.854 290.232 83.4196 293.987 83.8733C296.483 84.1772 299.002 84.9131 300.944 86.504C302.478 87.891 303.726 89.5641 304.617 91.4291C307.013 95.8985 308.819 100.829 308.77 105.899C308.721 110.05 307.441 114.093 305.092 117.518C303.868 119.296 299.913 125.461 297.285 124.782C293.984 123.931 297.755 118.953 293.802 117.406Z" fill="#2F2E41"/>
</g>
<defs>
<filter id="filter0_d_6_32" x="0" y="0" width="385" height="409" filterUnits="userSpaceOnUse" color-interpolation-filters="sRGB">
<feFlood flood-opacity="0" result="BackgroundImageFix"/>
<feColorMatrix in="SourceAlpha" type="matrix" values="0 0 0 0 0 0 0 0 0 0 0 0 0 0 0 0 0 0 127 0" result="hardAlpha"/>
<feOffset dy="4"/>
<feGaussianBlur stdDeviation="2"/>
<feComposite in2="hardAlpha" operator="out"/>
<feColorMatrix type="matrix" values="0 0 0 0 0 0 0 0 0 0 0 0 0 0 0 0 0 0 0.25 0"/>
<feBlend mode="normal" in2="BackgroundImageFix" result="effect1_dropShadow_6_32"/>
<feBlend mode="normal" in="SourceGraphic" in2="effect1_dropShadow_6_32" result="shape"/>
</filter>
<linearGradient id="paint0_linear_6_32" x1="200.5" y1="0" x2="201" y2="344.5" gradientUnits="userSpaceOnUse">
<stop stop-color="#DCECFF"/>
<stop offset="0.609375" stop-color="#C4C4C4" stop-opacity="0"/>
</linearGradient>
</defs>
</svg>
